<svg height="512pt" viewBox="0 0 512 512" width="512pt" xmlns="http://www.w3.org/2000/svg"><path d="m417.503906 158.136719 21.210938-21.210938-63.640625-63.640625-21.210938 21.210938-17.675781-17.675782c-5.859375-5.859374-15.355469-5.859374-21.214844 0-5.859375 5.855469-5.859375 15.355469 0 21.210938l2.242188 2.242188-191.875 152.175781c-3.585938 2.847656-5.679688 7.175781-5.679688 11.753906v113.136719c0 8.285156 6.714844 15 15 15h113.136719c4.578125 0 8.90625-2.089844 11.753906-5.679688l152.175781-191.875 2.242188 2.242188c2.925781 2.929687 6.765625 4.394531 10.605469 4.394531 3.835937 0 7.675781-1.464844 10.605469-4.394531 5.855468-5.855469 5.855468-15.355469 0-21.210938zm-144.957031 102.53125c-2.929687 2.929687-6.769531 4.394531-10.605469 4.394531-3.839844 0-7.679687-1.464844-10.605468-4.394531-5.859376-5.859375-5.859376-15.355469 0-21.214844l102.527343-102.53125 21.214844 21.214844zm0 0"/><path d="m247.796875 422.339844h-113.136719c-24.8125 0-45-20.1875-45-45v-113.136719c0-13.816406 6.207032-26.667969 17.035156-35.257813l166.921876-132.386718c-88.328126-25.972656-177.386719-16.945313-265.324219 27.023437-5.082031 2.542969-8.292969 7.734375-8.292969 13.417969v155.074219c0 104 70.46875 194.253906 171.363281 219.476562 1.191407.300781 2.414063.449219 3.636719.449219s2.441406-.148438 3.636719-.449219c90.519531-22.628906 156.53125-97.597656 169.160156-187.875l-64.742187 81.628907c-8.585938 10.824218-21.4375 17.035156-35.257813 17.035156zm0 0"/><path d="m498.820312 13.179688c-8.5-8.5-19.800781-13.179688-31.820312-13.179688s-23.320312 4.679688-31.820312 13.179688l-38.890626 38.890624 63.640626 63.640626 38.890624-38.890626c8.496094-8.5 13.179688-19.800781 13.179688-31.820312s-4.679688-23.320312-13.179688-31.820312zm0 0"/></svg>